<svg width="1440" height="1024" viewBox="0 0 1440 1024" fill="none" xmlns="http://www.w3.org/2000/svg">
<rect width="1440" height="1024" fill="url(#paint0_linear_210_1002)"/>
<path d="M543.434 164.866C306.481 118.703 82.4142 56.3292 0 30.9124V1024H1440V493.911C1371.07 421.324 839.625 222.569 543.434 164.866Z" fill="url(#paint1_linear_210_1002)" fill-opacity="0.69"/>
<path d="M0 445.596C312.414 427.827 1090.17 253.329 1440 168.301V1024H0V445.596Z" fill="url(#paint2_linear_210_1002)" fill-opacity="0.69"/>
<path d="M816.5 1024C647.167 915.54 293.1 680.758 231.5 609.317C171.17 539.348 56.358 464.84 3.26958 434.407L0 1024H816.5Z" fill="url(#paint3_linear_210_1002)" fill-opacity="0.5"/>
<path d="M243.5 674.347C210.7 570.115 67.5 468.494 0 430.712V1024H475C411.5 950.879 276.3 778.579 243.5 674.347Z" fill="#042B91" fill-opacity="0.69"/>
<path d="M1440 1024C1080.38 864.813 330.159 769.298 0 741.438V1024H1440Z" fill="url(#paint4_linear_210_1002)" fill-opacity="0.45"/>
<path d="M625.5 506.962C265.1 361.148 58.3333 240.429 0 198.297V1024H1433.5C1314.33 912.41 985.9 652.777 625.5 506.962Z" fill="url(#paint5_linear_210_1002)" fill-opacity="0.34"/>
<path d="M560.5 596.265C193.3 423.705 33.8333 321.03 0 291.263V1024H1161.5C1114.17 953.321 927.7 768.824 560.5 596.265Z" fill="url(#paint6_linear_210_1002)" fill-opacity="0.57"/>
<path d="M1440 120.209C637.622 278.388 217.676 105.978 108 0H1440V120.209Z" fill="url(#paint7_linear_210_1002)" fill-opacity="0.47"/>
<path d="M1440 423.614C599.2 353.637 204.333 112.048 112 0H1440V423.614Z" fill="url(#paint8_linear_210_1002)"/>
<defs>
<linearGradient id="paint0_linear_210_1002" x1="0" y1="0" x2="393.074" y2="1332.77" gradientUnits="userSpaceOnUse">
<stop stop-color="#042B91"/>
<stop offset="1" stop-color="#1488DB"/>
</linearGradient>
<linearGradient id="paint1_linear_210_1002" x1="2.77569e-05" y1="80.1431" x2="407.698" y2="1354.31" gradientUnits="userSpaceOnUse">
<stop stop-color="#042B91"/>
<stop offset="0.314064" stop-color="#3E9DE1" stop-opacity="0.7"/>
</linearGradient>
<linearGradient id="paint2_linear_210_1002" x1="319.5" y1="451.778" x2="613.515" y2="1241.43" gradientUnits="userSpaceOnUse">
<stop stop-color="#6BB4E8" stop-opacity="0.5"/>
<stop offset="1" stop-color="#042B91"/>
</linearGradient>
<linearGradient id="paint3_linear_210_1002" x1="63.5" y1="546.347" x2="141.907" y2="1064.32" gradientUnits="userSpaceOnUse">
<stop stop-color="#3655A7"/>
<stop offset="1" stop-color="#6BB4E8" stop-opacity="0.8"/>
</linearGradient>
<linearGradient id="paint4_linear_210_1002" x1="158.5" y1="882.49" x2="1120.26" y2="1427.58" gradientUnits="userSpaceOnUse">
<stop stop-color="#042B91"/>
<stop offset="1" stop-color="#6BB4E8"/>
</linearGradient>
<linearGradient id="paint5_linear_210_1002" x1="1127.5" y1="426.819" x2="770.259" y2="1329" gradientUnits="userSpaceOnUse">
<stop stop-color="#6BB4E8"/>
<stop offset="1" stop-color="#042B91"/>
</linearGradient>
<linearGradient id="paint6_linear_210_1002" x1="955" y1="254.397" x2="741.784" y2="1080.61" gradientUnits="userSpaceOnUse">
<stop stop-color="#6BB4E8" stop-opacity="0.5"/>
<stop offset="0.848538" stop-color="#042B91"/>
</linearGradient>
<linearGradient id="paint7_linear_210_1002" x1="108" y1="182.093" x2="1130.98" y2="-477.361" gradientUnits="userSpaceOnUse">
<stop stop-color="#042B91"/>
<stop offset="1" stop-color="#1488DB"/>
</linearGradient>
<linearGradient id="paint8_linear_210_1002" x1="776" y1="7.05403e-07" x2="779.777" y2="293.507" gradientUnits="userSpaceOnUse">
<stop stop-color="#042B91" stop-opacity="0.69"/>
<stop offset="1" stop-color="#3E9DE1" stop-opacity="0.4"/>
</linearGradient>
</defs>
</svg>
